<svg xmlns="http://www.w3.org/2000/svg" version="1.1" xmlns:xlink="http://www.w3.org/1999/xlink" xmlns:svgjs="http://svgjs.dev/svgjs" width="2000" height="545" viewBox="0 0 2000 545"><g transform="matrix(1,0,0,1,-1.2121212121212466,0.008332062245017369)"><svg viewBox="0 0 396 108" data-background-color="#ffffff" preserveAspectRatio="xMidYMid meet" height="545" width="2000" xmlns="http://www.w3.org/2000/svg" xmlns:xlink="http://www.w3.org/1999/xlink"><g id="tight-bounds" transform="matrix(1,0,0,1,0.2400000000000091,-0.0016511242614001276)"><svg viewBox="0 0 395.52 108.00330224852281" height="108.00330224852281" width="395.52"><g><svg viewBox="0 0 596.4933158096349 162.88240260065626" height="108.00330224852281" width="395.52"><g transform="matrix(1,0,0,1,200.9733158096348,41.1036477063811)"><svg viewBox="0 0 395.52 80.67510718789406" height="80.67510718789406" width="395.52"><g id="textblocktransform"><svg viewBox="0 0 395.52 80.67510718789406" height="80.67510718789406" width="395.52" id="textblock"><g><svg viewBox="0 0 395.52 80.67510718789406" height="80.67510718789406" width="395.52"><g transform="matrix(1,0,0,1,0,0)"><svg width="395.52" viewBox="4.65 -32.05 158.59 32.349999999999994" height="80.67510718789406" data-palette-color="#17a2b8"><path d="M22.7-3.5L22.95-3.1 22.65 0 4.65 0 4.9-9.65 4.65-32.05 22.7-32.05 22.9-31.65 22.6-28.55 15.05-28.7 8.7-28.6 8.6-18.1 14.6-18 19.9-18.15 20.2-17.8 19.85-14.7 14.25-14.8 8.55-14.75 8.5-10 8.65-3.35 15-3.3 22.7-3.5ZM38.35-25.1Q44.05-25.1 47.07-22.05 50.1-19 50.1-13.3L50.1-13.3Q50.1-6.75 46.8-3.25 43.5 0.25 37.35 0.25L37.35 0.25Q35.6 0.25 33.17 0.18 30.75 0.1 28.6 0L28.6 0 28.75-7.5 28.6-24.9 38.35-25.1ZM37.95-2.8Q41.95-2.8 44.12-5.23 46.3-7.65 46.3-12.55L46.3-12.55Q46.3-17.35 44.25-19.65 42.2-21.95 38.05-21.95L38.05-21.95Q35.6-21.95 32.3-21.75L32.3-21.75 32.2-7.8 32.25-3.1Q33.7-3 35.3-2.9 36.9-2.8 37.95-2.8L37.95-2.8ZM76.2-24.9L76.05-12.25 76.05-8.65Q76.09-4.4 73.47-2.05 70.84 0.3 65.95 0.3L65.95 0.3Q61.1 0.3 58.55-2.02 56-4.35 56.1-8.65L56.1-8.65 56.15-12.45 56.1-24.9 59.85-24.9 59.65-9.25Q59.6-6.1 61.22-4.5 62.85-2.9 66.09-2.9L66.09-2.9Q69.3-2.9 70.95-4.5 72.59-6.1 72.55-9.25L72.55-9.25 72.4-24.9 76.2-24.9ZM109.34-32.05L109.14-10 109.24 0 105.29 0 105.49-9.65 105.44-14.45 96.54-14.5 88.39-14.45 88.34-10 88.49 0 84.54 0 84.69-9.65 84.54-32.05 88.54-32.05 88.39-17.85 96.89-17.8 105.44-17.85 105.29-32.05 109.34-32.05ZM137.84-24.9L137.69-12.25 137.69-8.65Q137.74-4.4 135.12-2.05 132.49 0.3 127.59 0.3L127.59 0.3Q122.74 0.3 120.19-2.02 117.64-4.35 117.74-8.65L117.74-8.65 117.79-12.45 117.74-24.9 121.49-24.9 121.29-9.25Q121.24-6.1 122.87-4.5 124.49-2.9 127.74-2.9L127.74-2.9Q130.94-2.9 132.59-4.5 134.24-6.1 134.19-9.25L134.19-9.25 134.04-24.9 137.84-24.9ZM157.69-12.95Q163.24-11.85 163.24-7.05L163.24-7.05Q163.24-3.45 160.44-1.65 157.64 0.15 152.24 0.15L152.24 0.15Q148.99 0.15 145.99 0L145.99 0 146.14-7.5 145.99-24.9 153.79-24.95Q157.54-24.95 159.61-23.38 161.69-21.8 161.69-18.9L161.69-18.9Q161.69-16.75 160.64-15.25 159.59-13.75 157.69-12.95L157.69-12.95ZM157.74-18.45Q157.74-20.3 156.54-21.15 155.34-22 152.69-22L152.69-22 149.64-22 149.59-14.3 154.04-14.15Q155.89-14.55 156.81-15.58 157.74-16.6 157.74-18.45L157.74-18.45ZM152.69-2.7Q155.94-2.7 157.66-3.83 159.39-4.95 159.39-7.15L159.39-7.15Q159.39-8.95 158.19-9.95 156.99-10.95 154.54-11.3L154.54-11.3 149.59-11.25 149.54-7.8 149.64-2.85Q151.19-2.7 152.69-2.7L152.69-2.7Z" opacity="1" transform="matrix(1,0,0,1,0,0)" fill="#17a2b8" class="wordmark-text-0" data-fill-palette-color="primary" id="text-0"></path></svg></g></svg></g></svg></g></svg></g><g><svg viewBox="0 0 162.88240260065626 162.88240260065626" height="162.88240260065626" width="162.88240260065626"><g><svg></svg></g><g id="icon-0"><svg viewBox="0 0 162.88240260065626 162.88240260065626" height="162.88240260065626" width="162.88240260065626"><g><path d="M0 81.441c0-44.979 36.462-81.441 81.441-81.441 44.979 0 81.441 36.462 81.441 81.441 0 44.979-36.462 81.441-81.441 81.441-44.979 0-81.441-36.462-81.441-81.441zM81.441 155.607c40.961 0 74.166-33.205 74.166-74.166 0-40.961-33.205-74.166-74.166-74.166-40.961 0-74.166 33.205-74.166 74.166 0 40.961 33.205 74.166 74.166 74.166z" data-fill-palette-color="accent" fill="#0f6674" stroke="transparent"></path></g><g transform="matrix(1,0,0,1,36.25732174223581,36.25727614394124)"><svg viewBox="0 0 90.36775911618464 90.36785031277378" height="90.36785031277378" width="90.36775911618464"><g><svg xmlns="http://www.w3.org/2000/svg" data-name="Layer 1" viewBox="2 2 60 60.00006055030469" x="0" y="0" height="90.36785031277378" width="90.36775911618464" class="icon-cg-0" data-fill-palette-color="accent" id="cg-0"><rect x="22" y="9" width="6" height="2" fill="#0f6674" data-fill-palette-color="accent"></rect><rect x="18" y="15" width="10" height="2" fill="#0f6674" data-fill-palette-color="accent"></rect><rect x="18" y="21" width="10" height="2" fill="#0f6674" data-fill-palette-color="accent"></rect><rect x="40" y="9" width="6" height="2" fill="#0f6674" data-fill-palette-color="accent"></rect><rect x="36" y="15" width="10" height="2" fill="#0f6674" data-fill-palette-color="accent"></rect><rect x="36" y="21" width="10" height="2" fill="#0f6674" data-fill-palette-color="accent"></rect><path d="M61 6H57.638A13.821 13.821 0 0 0 48 2a13.3 13.3 0 0 0-3.489 0.478A13.555 13.555 0 0 0 32 5.431 13.555 13.555 0 0 0 19.489 2.478 13.3 13.3 0 0 0 16 2 13.821 13.821 0 0 0 6.362 6H3A1 1 0 0 0 2 7V31a1 1 0 0 0 1 1H14.694a19.874 19.874 0 0 0 1.311 21.956c0 0.015 0 0.029 0 0.044h0.038a19.924 19.924 0 0 0 31.924 0H48c0-0.015-0.005-0.029-0.005-0.044A19.874 19.874 0 0 0 49.306 32H61a1 1 0 0 0 1-1V7A1 1 0 0 0 61 6ZM38.973 41c-0.025-1.588-0.109-3.13-0.251-4.616 4.045-0.782 7.064-2.244 8.437-4.056A17.746 17.746 0 0 1 49.962 41ZM32 60c-1.584 0-3.638-3.946-4.54-10.715a36.3 36.3 0 0 1 9.08 0C35.638 56.054 33.584 60 32 60Zm0-13a37.8 37.8 0 0 0-4.76 0.293c-0.123-1.341-0.2-2.775-0.224-4.293h9.968c-0.025 1.518-0.1 2.952-0.224 4.293A37.8 37.8 0 0 0 32 47ZM14.038 41a17.746 17.746 0 0 1 2.8-8.672c1.373 1.812 4.392 3.273 8.437 4.056-0.142 1.485-0.226 3.027-0.251 4.616ZM13 30H9.869A11.671 11.671 0 0 1 13 28.635Zm16.1 0H16.905A11.5 11.5 0 0 1 29.1 30Zm9.4 4.389Q38.326 33.162 38.1 32h6.577A15.732 15.732 0 0 1 38.495 34.389ZM36.066 32q0.261 1.3 0.452 2.687a35.674 35.674 0 0 1-9.036 0q0.191-1.389 0.452-2.687ZM19.321 32H25.9q-0.224 1.162-0.393 2.389A15.763 15.763 0 0 1 19.321 32Zm7.706 9q0.036-2.223 0.231-4.3A37.215 37.215 0 0 0 32 37a37.227 37.227 0 0 0 4.742-0.3q0.2 2.079 0.231 4.305Zm7.878-11A11.5 11.5 0 0 1 47.1 30ZM51 28.635A11.671 11.671 0 0 1 54.131 30H51ZM56 7.2V28.846a13.712 13.712 0 0 0-5-2.256V6.769a1 1 0 0 0-0.3-0.715 14.608 14.608 0 0 0-2.622-2.03A11.866 11.866 0 0 1 56 7.2Zm-7 0V28.851a13.5 13.5 0 0 0-16 0V7.2A11.629 11.629 0 0 1 49 7.2Zm-18 0V28.851a13.5 13.5 0 0 0-16 0V7.2A11.629 11.629 0 0 1 31 7.2ZM8 7.2a11.858 11.858 0 0 1 7.922-3.173A14.6 14.6 0 0 0 13.3 6.054a1 1 0 0 0-0.3 0.715V26.59a13.712 13.712 0 0 0-5 2.256ZM4 8H6V30H4ZM14.051 43H25.009c0.027 1.546 0.116 3.1 0.264 4.61-4 0.771-7.033 2.225-8.424 4.07A17.866 17.866 0 0 1 14.051 43Zm4.064 10.443c0.554-1.506 3.287-3.025 7.393-3.838 0.567 4.13 1.6 7.805 3.077 10.06A18.011 18.011 0 0 1 18.115 53.443Zm17.3 6.222c1.474-2.255 2.51-5.93 3.077-10.06 4.106 0.813 6.839 2.332 7.393 3.838A18.011 18.011 0 0 1 35.415 59.665ZM38.727 47.61c0.148-1.514 0.237-3.064 0.264-4.61H49.949a17.866 17.866 0 0 1-2.8 8.68C45.76 49.835 42.73 48.381 38.727 47.61ZM60 30H58V8h2Z" fill="#0f6674" data-fill-palette-color="accent"></path></svg></g></svg></g></svg></g></svg></g></svg></g><defs></defs></svg><rect width="395.52" height="108.00330224852281" fill="none" stroke="none" visibility="hidden"></rect></g></svg></g></svg>